# xmcd CD database file
#
# Track frame offsets:
#	165
#	27785
#	79962
#	130075
#
# Disc length: 3094 seconds
#
# Revision: 0
# Processed by: cddbd v1.5.2PL0 Copyright (c) Steve Scherf et al.
# Submitted via: CDex 1.51
#
DISCID=280c1404
DTITLE=Anthony Davis - The Ghost Factory
DYEAR=1988
DGENRE=Jazz
TTITLE0=MAPS - Timothy Island
TTITLE1=MAPS - The Ghost Factory
TTITLE2=MAPS - Planet J
TTITLE3=Wayang No. 5 (for piano and orchestra)
EXTD=YEAR: 1988
EXTT0=
EXTT1=
EXTT2=
EXTT3=
PLAYORDER=
